<svg xmlns="http://www.w3.org/2000/svg" height="40" width="40"><path d="M21.833 16.792V13.75h9.542v3.042Zm0-5.792V7.958h13.709V11Zm-9.416 24.25q-3.375 0-5.75-2.375t-2.375-5.75q0-2 .958-3.792.958-1.791 2.667-2.958V9.208q0-1.833 1.312-3.166 1.313-1.334 3.188-1.334 1.875 0 3.187 1.334 1.313 1.333 1.313 3.166v11.167q1.708 1.167 2.666 2.958.959 1.792.959 3.792 0 3.375-2.396 5.75t-5.729 2.375Zm-4.959-8.125h9.917q0-1.417-.729-2.708-.729-1.292-1.979-1.917l-.917-.5V9.208q0-.583-.375-.958t-.958-.375q-.584 0-.959.375t-.375.958V22l-.916.5q-1.334.667-2.021 1.938-.688 1.27-.688 2.687Z"/></svg>